<svg width="16" height="14" viewBox="0 0 16 14" fill="none" xmlns="http://www.w3.org/2000/svg">
<g clip-path="url(#clip0)">
<mask id="mask0" mask-type="alpha" maskUnits="userSpaceOnUse" x="-1" y="0" width="17" height="14">
<path d="M3.41427 8L7.70716 12.2929C8.09768 12.6834 8.09768 13.3166 7.70716 13.7071C7.31663 14.0976 6.68347 14.0976 6.29294 13.7071L0.342571 7.75673C-0.0606427 7.40192 -0.150686 6.73652 0.292945 6.29289L6.29294 0.292893C6.68347 -0.0976311 7.31663 -0.0976311 7.70716 0.292893C8.09768 0.683418 8.09768 1.31658 7.70716 1.70711L3.41427 6H15.0001C15.5523 6 16.0001 6.44772 16.0001 7C16.0001 7.55228 15.5523 8 15.0001 8H3.41427Z" fill="white"/>
</mask>
<g mask="url(#mask0)">
<path d="M3.41427 8L7.70716 12.2929C8.09768 12.6834 8.09768 13.3166 7.70716 13.7071C7.31663 14.0976 6.68347 14.0976 6.29294 13.7071L0.342571 7.75673C-0.0606427 7.40192 -0.150686 6.73652 0.292945 6.29289L6.29294 0.292893C6.68347 -0.0976311 7.31663 -0.0976311 7.70716 0.292893C8.09768 0.683418 8.09768 1.31658 7.70716 1.70711L3.41427 6H15.0001C15.5523 6 16.0001 6.44772 16.0001 7C16.0001 7.55228 15.5523 8 15.0001 8H3.41427Z" fill="white"/>
</g>
</g>
<defs>
<clipPath id="clip0">
<rect width="16" height="14" fill="white"/>
</clipPath>
</defs>
</svg>
